<svg width="198" height="52" viewBox="0 0 198 52" fill="none" xmlns="http://www.w3.org/2000/svg">
<path d="M87.1006 26.367C86.7294 26.3283 86.2499 26.309 85.6622 26.309H82.1474V33.037H78.969V17.5278C79.1778 17.5432 79.4175 17.5548 79.6882 17.5626L80.5466 17.5858C81.1343 17.6012 81.7453 17.609 82.3794 17.609C84.2818 17.609 86.0991 17.578 87.8314 17.5162C87.7463 18.1967 87.7038 19.1054 87.7038 20.2422C87.7038 20.3659 87.7115 20.4587 87.727 20.5206L87.7038 20.5554C87.2939 20.4394 86.7217 20.3814 85.987 20.3814H82.1474V23.5714H85.5346C86.3853 23.5714 86.8957 23.5482 87.0658 23.5018L87.1006 26.367Z" fill="#212121"/>
<path d="M97.7958 31.9814C96.806 32.8011 95.7272 33.211 94.5594 33.211C93.3066 33.211 92.3245 32.7895 91.613 31.9466C90.9325 31.1269 90.5922 30.0016 90.5922 28.571V23.9658C90.5922 22.4191 90.5574 21.5336 90.4878 21.3094C90.4259 21.0774 90.3795 20.9304 90.3486 20.8686C90.7043 20.8995 91.0755 20.915 91.4622 20.915H92.425C92.6802 20.915 93.0166 20.9034 93.4342 20.8802V27.5966C93.4342 29.1896 93.8673 30.1138 94.7334 30.369C94.9964 30.4463 95.2825 30.485 95.5918 30.485C96.5044 30.485 97.239 30.1524 97.7958 29.4874V20.915H100.673V31.5522C100.673 32.2327 100.704 32.7277 100.765 33.037H97.7958V31.9814Z" fill="#212121"/>
<path d="M107.122 31.7378C107.122 32.4029 107.138 32.8359 107.169 33.037H104.28V20.915H107.122V21.8082C107.78 21.058 108.468 20.683 109.187 20.683C109.914 20.683 110.486 20.7719 110.904 20.9498L110.695 24.0702L110.649 24.105C110.378 23.6255 109.817 23.3858 108.967 23.3858C108.642 23.3858 108.309 23.4979 107.969 23.7222C107.637 23.9387 107.354 24.2287 107.122 24.5922V31.7378Z" fill="#212121"/>
<path d="M115.37 31.5522C115.37 32.2327 115.401 32.7277 115.463 33.037H112.551V20.915H115.37V21.9474C116.391 21.1044 117.481 20.683 118.641 20.683C119.909 20.683 120.922 21.116 121.68 21.9822C122.438 22.8406 122.817 23.9735 122.817 25.381V29.9978C122.817 31.3047 122.836 32.0897 122.875 32.3526C122.914 32.6155 122.964 32.7857 123.026 32.863C123.095 32.9403 123.153 33.0099 123.2 33.0718L123.177 33.1182C122.55 33.0641 122.094 33.037 121.808 33.037H120.996C120.748 33.037 120.416 33.0486 119.998 33.0718V26.7498C119.998 24.4839 119.31 23.351 117.933 23.351C116.913 23.351 116.058 23.8768 115.37 24.9286V31.5522Z" fill="#212121"/>
<path d="M125.845 17.4582C126.463 16.4915 127.109 15.6408 127.782 14.9062L130.276 16.8666C129.943 17.2764 129.634 17.6786 129.348 18.073C129.348 18.073 129.05 18.4944 128.455 19.3374L125.845 17.4582ZM128.895 31.7378C128.895 32.4029 128.911 32.8359 128.942 33.037H125.995V20.915H128.895V31.7378Z" fill="#212121"/>
<path d="M137.561 30.485C138.558 30.485 139.243 30.2259 139.614 29.7078H139.707L139.741 32.399C139.363 32.7779 138.659 33.0293 137.63 33.153C137.352 33.1917 137.004 33.211 136.586 33.211C136.176 33.211 135.728 33.1337 135.241 32.979C134.761 32.8243 134.351 32.573 134.011 32.225C133.307 31.5058 132.955 30.3806 132.955 28.8494V23.583H131.204C131.196 23.3587 131.192 23.1306 131.192 22.8986V21.1122C131.192 20.9807 131.196 20.915 131.204 20.915H132.955V17.609H135.797V20.915H138.987V23.583H135.797V28.3158C135.797 29.5299 136.134 30.222 136.807 30.3922C137.023 30.454 137.275 30.485 137.561 30.485Z" fill="#212121"/>
<path d="M149.369 31.9814C148.38 32.8011 147.301 33.211 146.133 33.211C144.88 33.211 143.898 32.7895 143.187 31.9466C142.506 31.1269 142.166 30.0016 142.166 28.571V23.9658C142.166 22.4191 142.131 21.5336 142.061 21.3094C142 21.0774 141.953 20.9304 141.922 20.8686C142.278 20.8995 142.649 20.915 143.036 20.915H143.999C144.254 20.915 144.59 20.9034 145.008 20.8802V27.5966C145.008 29.1896 145.441 30.1138 146.307 30.369C146.57 30.4463 146.856 30.485 147.165 30.485C148.078 30.485 148.813 30.1524 149.369 29.4874V20.915H152.246V31.5522C152.246 32.2327 152.277 32.7277 152.339 33.037H149.369V31.9814Z" fill="#212121"/>
<path d="M158.696 31.7378C158.696 32.4029 158.711 32.8359 158.742 33.037H155.854V20.915H158.696V21.8082C159.353 21.058 160.042 20.683 160.761 20.683C161.488 20.683 162.06 20.7719 162.478 20.9498L162.269 24.0702L162.222 24.105C161.952 23.6255 161.391 23.3858 160.54 23.3858C160.216 23.3858 159.883 23.4979 159.543 23.7222C159.21 23.9387 158.928 24.2287 158.696 24.5922V31.7378Z" fill="#212121"/>
<path d="M163.313 27.0746C163.313 26.1698 163.467 25.3307 163.777 24.5574C164.086 23.784 164.523 23.1074 165.088 22.5274C166.294 21.2978 167.872 20.683 169.82 20.683C171.468 20.683 172.79 21.2282 173.788 22.3186C174.77 23.3703 175.261 24.6927 175.261 26.2858C175.261 26.8967 175.214 27.3143 175.122 27.5386C174.348 27.7551 172.774 27.8634 170.4 27.8634H166.317C166.518 28.6908 166.986 29.3366 167.721 29.8006C168.455 30.2568 169.41 30.485 170.586 30.485C171.816 30.485 172.871 30.2646 173.753 29.8238C173.985 29.7078 174.159 29.5995 174.275 29.499C174.259 29.8238 174.24 30.1563 174.217 30.4966L174.089 32.3062C173.501 32.7083 172.55 32.9867 171.236 33.1414C170.849 33.1878 170.478 33.211 170.122 33.211C168.158 33.211 166.534 32.6387 165.25 31.4942C163.958 30.3419 163.313 28.8687 163.313 27.0746ZM172.175 25.613C171.858 23.9503 170.953 23.119 169.461 23.119C168.285 23.119 167.392 23.6255 166.781 24.6386C166.596 24.9479 166.452 25.2882 166.352 25.6594C166.538 25.6671 166.766 25.6748 167.036 25.6826H167.895C168.181 25.6903 168.455 25.6942 168.718 25.6942H169.38C169.774 25.6942 170.161 25.6903 170.54 25.6826L171.491 25.6478C171.746 25.64 171.974 25.6284 172.175 25.613Z" fill="#212121"/>
<path d="M181.873 33.211C179.692 33.211 178.049 32.8127 176.943 32.0162C176.958 31.7842 176.981 31.5212 177.012 31.2274L177.117 30.3922C177.179 29.8431 177.217 29.5028 177.233 29.3714C177.248 29.2322 177.26 29.1587 177.268 29.151C177.275 29.1355 177.337 29.1974 177.453 29.3366C177.569 29.468 177.79 29.6304 178.114 29.8238C178.439 30.0171 178.814 30.1872 179.24 30.3342C180.16 30.6512 181.119 30.8098 182.116 30.8098C183.454 30.8098 184.123 30.3651 184.123 29.4758C184.123 29.1896 183.996 28.977 183.74 28.8378C183.284 28.6058 182.611 28.4318 181.722 28.3158C180.84 28.192 180.117 28.0142 179.553 27.7822C178.988 27.5502 178.528 27.2718 178.172 26.947C177.515 26.336 177.186 25.5356 177.186 24.5458C177.186 23.3394 177.65 22.392 178.578 21.7038C179.499 21.0232 180.771 20.683 182.395 20.683C184.003 20.683 185.376 21.1392 186.513 22.0518C186.459 22.2528 186.401 22.4462 186.339 22.6318C186.161 23.1422 186.029 23.5095 185.944 23.7338L185.678 24.4182C185.662 24.48 185.65 24.511 185.643 24.511C185.627 24.511 185.565 24.4298 185.457 24.2674C184.97 23.7028 184.212 23.3316 183.184 23.1538C182.866 23.0919 182.542 23.061 182.209 23.061C180.802 23.061 180.098 23.4863 180.098 24.337C180.098 24.6308 180.245 24.8551 180.539 25.0098C181.088 25.3036 181.838 25.5202 182.789 25.6594C183.748 25.7986 184.475 25.988 184.97 26.2278C185.465 26.4598 185.863 26.742 186.165 27.0746C186.722 27.6778 187 28.4782 187 29.4758C187 30.5662 186.563 31.4517 185.689 32.1322C184.777 32.8514 183.504 33.211 181.873 33.211Z" fill="#212121"/>
<path d="M62.8304 18.939L55.1777 11.2864C55.173 11.2816 55.1679 11.2773 55.1632 11.2726C55.1584 11.2678 55.1528 11.2615 55.1473 11.256C52.9142 9.02305 49.9701 7.64167 46.8254 7.3512C43.6807 7.06072 40.5337 7.87947 37.9292 9.66557C35.3246 7.87947 32.1776 7.06072 29.0329 7.3512C25.8882 7.64167 22.9442 9.02305 20.711 11.256L13.0583 18.9085C10.6741 21.2934 9.26647 24.4828 9.11148 27.8515C8.95648 31.2202 10.0653 34.5255 12.2205 37.1193C14.3757 39.7129 17.4219 41.4083 20.7621 41.8728C24.1023 42.3373 27.4956 41.5376 30.2767 39.6303C32.5286 41.1746 35.195 42.0013 37.9253 42.0023C40.6559 42.003 43.3226 41.1777 45.5754 39.6347C48.3533 41.5538 51.7484 42.3645 55.0937 41.908C58.439 41.4514 61.4925 39.7605 63.6548 37.1673C65.8168 34.574 66.9309 31.266 66.7785 27.8933C66.6259 24.5204 65.2177 21.3265 62.8304 18.939ZM26.1212 35.7982C24.3936 36.6233 22.43 36.811 20.5773 36.3283C18.7247 35.8458 17.1023 34.7237 15.9969 33.1606C14.8916 31.5974 14.3743 29.694 14.5367 27.7864C14.699 25.8787 15.5305 24.0899 16.8841 22.7361L24.5366 15.0834C25.7244 13.8972 27.2502 13.1077 28.9047 12.8235C30.5591 12.5393 32.2611 12.7741 33.7766 13.4959L28.3634 18.9085C26.2876 20.9736 24.9437 23.6607 24.5366 26.5604C24.447 27.1944 24.4017 27.8338 24.4013 28.4742C24.3959 31.0056 25.1058 33.487 26.4491 35.6327C26.3407 35.6905 26.2314 35.7454 26.1212 35.7976V35.7982ZM43.6686 34.2141C42.1447 35.728 40.0828 36.5759 37.9348 36.5724C35.7868 36.5688 33.7278 35.7138 32.2089 34.195C30.6901 32.6761 29.8351 30.6171 29.8315 28.4691C29.828 26.321 30.6759 24.2593 32.1898 22.7353L37.9292 16.9959L43.6686 22.7353C45.1881 24.2587 46.0414 26.3225 46.0414 28.4742C46.0414 30.6257 45.1881 32.6895 43.6686 34.2128V34.2141ZM59.004 34.2445C57.8106 35.4348 56.2767 36.2247 54.6147 36.5049C52.9526 36.7852 51.2445 36.5418 49.7268 35.8086C49.6176 35.756 49.5096 35.7009 49.4029 35.6432C50.7503 33.4952 51.4625 31.0098 51.4571 28.4742C51.4565 27.8338 51.4114 27.1944 51.3218 26.5604C50.9147 23.6607 49.5707 20.9736 47.4949 18.9085L42.1149 13.5286L42.0845 13.4983C43.5993 12.7768 45.3003 12.5418 46.954 12.8254C48.6077 13.1089 50.1331 13.8973 51.321 15.0821C51.3265 15.0876 51.3316 15.0934 51.3368 15.0989C51.3421 15.1043 51.3467 15.108 51.3514 15.1127L58.9682 22.7295L59.0046 22.7659C60.5266 24.2881 61.3818 26.3527 61.3818 28.5053C61.3818 30.6579 60.5266 32.7224 59.0046 34.2447L59.004 34.2445Z" fill="url(#paint0_linear)"/>
<defs>
<linearGradient id="paint0_linear" x1="38.0142" y1="39.0298" x2="40.4694" y2="4.11113" gradientUnits="userSpaceOnUse">
<stop stop-color="#FF8008"/>
<stop offset="1" stop-color="#FFC837"/>
</linearGradient>
</defs>
</svg>
